<svg width="512" height="512" xmlns="http://www.w3.org/2000/svg">
  <defs>
    <linearGradient id="grad" x1="0%" y1="0%" x2="100%" y2="100%">
      <stop offset="0%" style="stop-color:#8b5cf6;stop-opacity:1" />
      <stop offset="100%" style="stop-color:#ec4899;stop-opacity:1" />
    </linearGradient>
  </defs>
  <rect width="512" height="512" rx="100" fill="url(#grad)"/>
  <path d="M 150 200 L 150 350 C 150 360 160 370 170 370 L 210 370 C 220 370 230 360 230 350 L 230 180 C 230 170 240 160 250 160 L 340 160 C 350 160 360 170 360 180 L 360 350 C 360 360 350 370 340 370 L 300 370 C 290 370 280 360 280 350 L 280 220 M 360 180 L 380 160 L 380 140 C 380 135 375 130 370 130 C 365 130 360 135 360 140 L 360 180" 
        fill="white" stroke="white" stroke-width="3"/>
</svg>
